<mxfile host="app.diagrams.net" modified="2021-07-07T00:07:07.170Z" agent="5.0 (Windows)" etag="Gr2BHgqjiqF8Sy7bqLIP" version="14.8.4" type="github">
  <diagram id="FjyVBHpoQ_Tcklk_W5Ow" name="Page-1">
    <mxGraphModel dx="1200" dy="751" grid="1" gridSize="10" guides="1" tooltips="1" connect="1" arrows="1" fold="1" page="1" pageScale="1" pageWidth="850" pageHeight="1100" math="0" shadow="0">
      <root>
        <mxCell id="0" />
        <mxCell id="1" parent="0" />
        <mxCell id="7D5moBE9NLqGLkn83WMa-1" value="&lt;div&gt;&lt;p&gt;&lt;b&gt;Nuget&lt;/b&gt;: Sanitas&lt;/p&gt;&lt;/div&gt;&lt;div&gt;&lt;p&gt;Plugin Interfaces&lt;/p&gt;&lt;/div&gt;" style="rounded=0;whiteSpace=wrap;html=1;verticalAlign=top;fillColor=#f8cecc;strokeColor=#b85450;" vertex="1" parent="1">
          <mxGeometry x="330" y="60" width="140" height="430" as="geometry" />
        </mxCell>
        <mxCell id="dy92zZN4HGxnt1JuW3Fz-3" value="" style="rounded=0;whiteSpace=wrap;html=1;fillColor=#e1d5e7;strokeColor=#9673a6;" parent="1" vertex="1">
          <mxGeometry x="490" y="315" width="340" height="235" as="geometry" />
        </mxCell>
        <mxCell id="I2iN9y-sG4mmqUxaAtZH-52" value="&lt;p style=&quot;margin: 0px ; margin-top: 6px ; text-align: center&quot;&gt;&lt;b&gt;Plugin Provider XYZ&lt;br&gt;&lt;/b&gt;&lt;/p&gt;&lt;hr&gt;&lt;p style=&quot;margin: 0px ; margin-left: 8px&quot;&gt;.&lt;/p&gt;" style="align=left;overflow=fill;html=1;dropTarget=0;" parent="1" vertex="1">
          <mxGeometry x="540" y="350" width="240" height="150" as="geometry" />
        </mxCell>
        <mxCell id="I2iN9y-sG4mmqUxaAtZH-53" value="" style="shape=component;jettyWidth=8;jettyHeight=4;" parent="I2iN9y-sG4mmqUxaAtZH-52" vertex="1">
          <mxGeometry x="1" width="20" height="20" relative="1" as="geometry">
            <mxPoint x="-24" y="4" as="offset" />
          </mxGeometry>
        </mxCell>
        <mxCell id="I2iN9y-sG4mmqUxaAtZH-54" value="+ XYZPlugin1: IPluginName1Interface" style="html=1;rounded=0;" parent="1" vertex="1">
          <mxGeometry x="550" y="390" width="212.5" height="30" as="geometry" />
        </mxCell>
        <mxCell id="I2iN9y-sG4mmqUxaAtZH-55" value="" style="endArrow=none;html=1;rounded=0;align=center;verticalAlign=top;endFill=0;labelBackgroundColor=none;endSize=2;exitX=0;exitY=0.5;exitDx=0;exitDy=0;" parent="1" source="I2iN9y-sG4mmqUxaAtZH-54" edge="1">
          <mxGeometry relative="1" as="geometry">
            <mxPoint x="460" y="405" as="targetPoint" />
          </mxGeometry>
        </mxCell>
        <mxCell id="I2iN9y-sG4mmqUxaAtZH-56" value="" style="ellipse;html=1;fontSize=11;align=center;fillColor=none;points=[];aspect=fixed;resizable=0;verticalAlign=bottom;labelPosition=center;verticalLabelPosition=top;flipH=1;" parent="1" vertex="1">
          <mxGeometry x="450" y="401" width="8" height="8" as="geometry" />
        </mxCell>
        <mxCell id="I2iN9y-sG4mmqUxaAtZH-57" style="edgeStyle=none;rounded=0;orthogonalLoop=1;jettySize=auto;html=1;exitX=0.5;exitY=1;exitDx=0;exitDy=0;" parent="1" source="I2iN9y-sG4mmqUxaAtZH-54" target="I2iN9y-sG4mmqUxaAtZH-54" edge="1">
          <mxGeometry relative="1" as="geometry" />
        </mxCell>
        <mxCell id="dy92zZN4HGxnt1JuW3Fz-1" value="" style="rounded=0;whiteSpace=wrap;html=1;fillColor=#dae8fc;strokeColor=#6c8ebf;" parent="1" vertex="1">
          <mxGeometry x="40" y="70" width="270" height="360" as="geometry" />
        </mxCell>
        <mxCell id="I2iN9y-sG4mmqUxaAtZH-58" style="edgeStyle=none;rounded=0;orthogonalLoop=1;jettySize=auto;html=1;exitX=0.5;exitY=0;exitDx=0;exitDy=0;" parent="1" source="I2iN9y-sG4mmqUxaAtZH-54" target="I2iN9y-sG4mmqUxaAtZH-54" edge="1">
          <mxGeometry relative="1" as="geometry" />
        </mxCell>
        <mxCell id="I2iN9y-sG4mmqUxaAtZH-59" value="+ XYZPlugin2: IPluginName2Interface" style="html=1;rounded=0;" parent="1" vertex="1">
          <mxGeometry x="550" y="440" width="212.5" height="30" as="geometry" />
        </mxCell>
        <mxCell id="I2iN9y-sG4mmqUxaAtZH-60" value="" style="endArrow=none;html=1;rounded=0;align=center;verticalAlign=top;endFill=0;labelBackgroundColor=none;endSize=2;exitX=0;exitY=0.5;exitDx=0;exitDy=0;" parent="1" edge="1">
          <mxGeometry relative="1" as="geometry">
            <mxPoint x="550" y="455" as="sourcePoint" />
            <mxPoint x="460" y="455" as="targetPoint" />
          </mxGeometry>
        </mxCell>
        <mxCell id="I2iN9y-sG4mmqUxaAtZH-61" value="" style="ellipse;html=1;fontSize=11;align=center;fillColor=none;points=[];aspect=fixed;resizable=0;verticalAlign=bottom;labelPosition=center;verticalLabelPosition=top;flipH=1;" parent="1" vertex="1">
          <mxGeometry x="450" y="451" width="8" height="8" as="geometry" />
        </mxCell>
        <mxCell id="I2iN9y-sG4mmqUxaAtZH-62" value="" style="shape=flexArrow;endArrow=classic;html=1;fillColor=#d5e8d4;strokeColor=#82b366;" parent="1" edge="1">
          <mxGeometry width="50" height="50" relative="1" as="geometry">
            <mxPoint x="430" y="205" as="sourcePoint" />
            <mxPoint x="380" y="275" as="targetPoint" />
          </mxGeometry>
        </mxCell>
        <mxCell id="I2iN9y-sG4mmqUxaAtZH-63" value="" style="shape=flexArrow;endArrow=classic;html=1;fillColor=#e1d5e7;strokeColor=#9673a6;" parent="1" edge="1">
          <mxGeometry width="50" height="50" relative="1" as="geometry">
            <mxPoint x="430" y="390" as="sourcePoint" />
            <mxPoint x="380" y="320" as="targetPoint" />
          </mxGeometry>
        </mxCell>
        <mxCell id="I2iN9y-sG4mmqUxaAtZH-64" value="&lt;font style=&quot;font-size: 14px&quot;&gt;&lt;b&gt;Or&lt;/b&gt;&lt;/font&gt;" style="text;html=1;strokeColor=none;fillColor=none;align=center;verticalAlign=middle;whiteSpace=wrap;rounded=0;" parent="1" vertex="1">
          <mxGeometry x="636.25" y="275" width="40" height="40" as="geometry" />
        </mxCell>
        <mxCell id="I2iN9y-sG4mmqUxaAtZH-8" value="" style="fontStyle=1;align=center;verticalAlign=top;childLayout=stackLayout;horizontal=1;horizontalStack=0;resizeParent=1;resizeParentMax=0;resizeLast=0;marginBottom=0;" parent="1" vertex="1">
          <mxGeometry x="90" y="120" width="170" height="230" as="geometry" />
        </mxCell>
        <mxCell id="I2iN9y-sG4mmqUxaAtZH-9" value="&lt;b&gt;SanitasService&lt;/b&gt;" style="html=1;align=left;spacingLeft=4;verticalAlign=top;strokeColor=none;fillColor=none;" parent="I2iN9y-sG4mmqUxaAtZH-8" vertex="1">
          <mxGeometry width="170" height="40" as="geometry" />
        </mxCell>
        <mxCell id="I2iN9y-sG4mmqUxaAtZH-10" value="" style="shape=module;jettyWidth=10;jettyHeight=4;" parent="I2iN9y-sG4mmqUxaAtZH-9" vertex="1">
          <mxGeometry x="1" width="16" height="20" relative="1" as="geometry">
            <mxPoint x="-25" y="9" as="offset" />
          </mxGeometry>
        </mxCell>
        <mxCell id="I2iN9y-sG4mmqUxaAtZH-11" value="" style="line;strokeWidth=1;fillColor=none;align=left;verticalAlign=middle;spacingTop=-1;spacingLeft=3;spacingRight=3;rotatable=0;labelPosition=right;points=[];portConstraint=eastwest;" parent="I2iN9y-sG4mmqUxaAtZH-8" vertex="1">
          <mxGeometry y="40" width="170" height="8" as="geometry" />
        </mxCell>
        <mxCell id="I2iN9y-sG4mmqUxaAtZH-12" value="TypeLoadPluginProvider" style="html=1;align=center;spacingLeft=4;verticalAlign=top;strokeColor=none;fillColor=none;" parent="I2iN9y-sG4mmqUxaAtZH-8" vertex="1">
          <mxGeometry y="48" width="170" height="25" as="geometry" />
        </mxCell>
        <mxCell id="I2iN9y-sG4mmqUxaAtZH-13" value="&lt;div&gt;IPluginProvider&lt;/div&gt;" style="html=1;align=left;spacingLeft=4;verticalAlign=top;strokeColor=none;fillColor=none;" parent="I2iN9y-sG4mmqUxaAtZH-8" vertex="1">
          <mxGeometry y="73" width="170" height="25" as="geometry" />
        </mxCell>
        <mxCell id="I2iN9y-sG4mmqUxaAtZH-14" value="" style="line;strokeWidth=1;fillColor=none;align=left;verticalAlign=middle;spacingTop=-1;spacingLeft=3;spacingRight=3;rotatable=0;labelPosition=right;points=[];portConstraint=eastwest;" parent="I2iN9y-sG4mmqUxaAtZH-8" vertex="1">
          <mxGeometry y="98" width="170" height="8" as="geometry" />
        </mxCell>
        <mxCell id="I2iN9y-sG4mmqUxaAtZH-15" value="required interfaces" style="html=1;align=center;spacingLeft=4;verticalAlign=top;strokeColor=none;fillColor=none;" parent="I2iN9y-sG4mmqUxaAtZH-8" vertex="1">
          <mxGeometry y="106" width="170" height="25" as="geometry" />
        </mxCell>
        <mxCell id="I2iN9y-sG4mmqUxaAtZH-16" value="&lt;div&gt;&lt;br&gt;&lt;/div&gt;&lt;div&gt;&lt;br&gt;&lt;/div&gt;&lt;div&gt;&lt;br&gt;&lt;/div&gt;&lt;div&gt;&lt;br&gt;&lt;/div&gt;&lt;div&gt;...&lt;br&gt;&lt;/div&gt;" style="html=1;align=left;spacingLeft=4;verticalAlign=top;strokeColor=none;fillColor=none;" parent="I2iN9y-sG4mmqUxaAtZH-8" vertex="1">
          <mxGeometry y="131" width="170" height="99" as="geometry" />
        </mxCell>
        <mxCell id="I2iN9y-sG4mmqUxaAtZH-37" style="edgeStyle=none;rounded=0;orthogonalLoop=1;jettySize=auto;html=1;exitX=1;exitY=0.5;exitDx=0;exitDy=0;entryX=1.2;entryY=0.6;entryDx=0;entryDy=0;entryPerimeter=0;" parent="1" source="I2iN9y-sG4mmqUxaAtZH-28" target="I2iN9y-sG4mmqUxaAtZH-30" edge="1">
          <mxGeometry relative="1" as="geometry" />
        </mxCell>
        <mxCell id="I2iN9y-sG4mmqUxaAtZH-28" value="IPluginName1Interface" style="html=1;rounded=0;" parent="1" vertex="1">
          <mxGeometry x="100" y="260" width="150" height="30" as="geometry" />
        </mxCell>
        <mxCell id="I2iN9y-sG4mmqUxaAtZH-30" value="" style="shape=requiredInterface;html=1;fontSize=11;align=center;fillColor=none;points=[];aspect=fixed;resizable=0;verticalAlign=bottom;labelPosition=center;verticalLabelPosition=top;flipH=1;" parent="1" vertex="1">
          <mxGeometry x="361" y="270" width="5" height="10" as="geometry" />
        </mxCell>
        <mxCell id="I2iN9y-sG4mmqUxaAtZH-38" style="edgeStyle=none;rounded=0;orthogonalLoop=1;jettySize=auto;html=1;exitX=1;exitY=0.5;exitDx=0;exitDy=0;entryX=1.2;entryY=0.6;entryDx=0;entryDy=0;entryPerimeter=0;" parent="1" source="I2iN9y-sG4mmqUxaAtZH-39" target="I2iN9y-sG4mmqUxaAtZH-40" edge="1">
          <mxGeometry relative="1" as="geometry" />
        </mxCell>
        <mxCell id="I2iN9y-sG4mmqUxaAtZH-39" value="IPluginName2Interface" style="html=1;rounded=0;" parent="1" vertex="1">
          <mxGeometry x="99" y="305" width="150" height="30" as="geometry" />
        </mxCell>
        <mxCell id="I2iN9y-sG4mmqUxaAtZH-40" value="" style="shape=requiredInterface;html=1;fontSize=11;align=center;fillColor=none;points=[];aspect=fixed;resizable=0;verticalAlign=bottom;labelPosition=center;verticalLabelPosition=top;flipH=1;" parent="1" vertex="1">
          <mxGeometry x="360" y="315" width="5" height="10" as="geometry" />
        </mxCell>
        <mxCell id="dy92zZN4HGxnt1JuW3Fz-2" value="" style="rounded=0;whiteSpace=wrap;html=1;fillColor=#d5e8d4;strokeColor=#82b366;" parent="1" vertex="1">
          <mxGeometry x="490" y="40" width="340" height="230" as="geometry" />
        </mxCell>
        <mxCell id="I2iN9y-sG4mmqUxaAtZH-44" value="&lt;p style=&quot;margin: 0px ; margin-top: 6px ; text-align: center&quot;&gt;&lt;b&gt;Plugin Provider ABC&lt;br&gt;&lt;/b&gt;&lt;/p&gt;&lt;hr&gt;&lt;p style=&quot;margin: 0px ; margin-left: 8px&quot;&gt;.&lt;/p&gt;" style="align=left;overflow=fill;html=1;dropTarget=0;" parent="1" vertex="1">
          <mxGeometry x="540" y="90" width="240" height="150" as="geometry" />
        </mxCell>
        <mxCell id="I2iN9y-sG4mmqUxaAtZH-45" value="" style="shape=component;jettyWidth=8;jettyHeight=4;" parent="I2iN9y-sG4mmqUxaAtZH-44" vertex="1">
          <mxGeometry x="1" width="20" height="20" relative="1" as="geometry">
            <mxPoint x="-24" y="4" as="offset" />
          </mxGeometry>
        </mxCell>
        <mxCell id="I2iN9y-sG4mmqUxaAtZH-41" value="+ ABCPlugin1: IPluginName1Interface" style="html=1;rounded=0;" parent="1" vertex="1">
          <mxGeometry x="550" y="130" width="212.5" height="30" as="geometry" />
        </mxCell>
        <mxCell id="I2iN9y-sG4mmqUxaAtZH-42" value="" style="endArrow=none;html=1;rounded=0;align=center;verticalAlign=top;endFill=0;labelBackgroundColor=none;endSize=2;exitX=0;exitY=0.5;exitDx=0;exitDy=0;" parent="1" source="I2iN9y-sG4mmqUxaAtZH-41" edge="1">
          <mxGeometry relative="1" as="geometry">
            <mxPoint x="460" y="145" as="targetPoint" />
          </mxGeometry>
        </mxCell>
        <mxCell id="I2iN9y-sG4mmqUxaAtZH-43" value="" style="ellipse;html=1;fontSize=11;align=center;fillColor=none;points=[];aspect=fixed;resizable=0;verticalAlign=bottom;labelPosition=center;verticalLabelPosition=top;flipH=1;" parent="1" vertex="1">
          <mxGeometry x="450" y="141" width="8" height="8" as="geometry" />
        </mxCell>
        <mxCell id="I2iN9y-sG4mmqUxaAtZH-46" style="edgeStyle=none;rounded=0;orthogonalLoop=1;jettySize=auto;html=1;exitX=0.5;exitY=1;exitDx=0;exitDy=0;" parent="1" source="I2iN9y-sG4mmqUxaAtZH-41" target="I2iN9y-sG4mmqUxaAtZH-41" edge="1">
          <mxGeometry relative="1" as="geometry" />
        </mxCell>
        <mxCell id="I2iN9y-sG4mmqUxaAtZH-47" style="edgeStyle=none;rounded=0;orthogonalLoop=1;jettySize=auto;html=1;exitX=0.5;exitY=0;exitDx=0;exitDy=0;" parent="1" source="I2iN9y-sG4mmqUxaAtZH-41" target="I2iN9y-sG4mmqUxaAtZH-41" edge="1">
          <mxGeometry relative="1" as="geometry" />
        </mxCell>
        <mxCell id="I2iN9y-sG4mmqUxaAtZH-49" value="+ ABCPlugin2: IPluginName2Interface" style="html=1;rounded=0;" parent="1" vertex="1">
          <mxGeometry x="550" y="180" width="212.5" height="30" as="geometry" />
        </mxCell>
        <mxCell id="I2iN9y-sG4mmqUxaAtZH-50" value="" style="endArrow=none;html=1;rounded=0;align=center;verticalAlign=top;endFill=0;labelBackgroundColor=none;endSize=2;exitX=0;exitY=0.5;exitDx=0;exitDy=0;" parent="1" edge="1">
          <mxGeometry relative="1" as="geometry">
            <mxPoint x="550" y="195" as="sourcePoint" />
            <mxPoint x="460" y="195" as="targetPoint" />
          </mxGeometry>
        </mxCell>
        <mxCell id="I2iN9y-sG4mmqUxaAtZH-51" value="" style="ellipse;html=1;fontSize=11;align=center;fillColor=none;points=[];aspect=fixed;resizable=0;verticalAlign=bottom;labelPosition=center;verticalLabelPosition=top;flipH=1;" parent="1" vertex="1">
          <mxGeometry x="450" y="191" width="8" height="8" as="geometry" />
        </mxCell>
      </root>
    </mxGraphModel>
  </diagram>
</mxfile>
